# xmcd CD database file
#
# Track frame offsets:
#	183
#	11613
#	22690
#	31095
#	45310
#	57723
#	73250
#	85465
#	94250
#	105150
#	114808
#	126458
#	135138
#	151055
#	162523
#	173610
#	182023
#	196268
#	208778
#	224305
#	234798
#	243638
#	255045
#	264740
#	276480
#	285170
#
# Disc length: 4012 seconds
#
# Revision: 1
# Processed by: cddbd v1.5.2PL0 Copyright (c) Steve Scherf et al.
# Submitted via: CDex 1.70beta2
#
DISCID=570faa1a
DTITLE=Henri Dès - La glace au citron
DYEAR=1900
DGENRE=enfant
TTITLE0=La glace au citron
TTITLE1=Le courant d'air
TTITLE2=Matin chagrin
TTITLE3=J'ai plus faim
TTITLE4=Le pantalon
TTITLE5=Mi aout
TTITLE6=La fourmi amoureuse
TTITLE7=Le si do des crapaut
TTITLE8=Le voyage
TTITLE9=Joyeux anniversaire
TTITLE10=Grand maman
TTITLE11=Boum badaboum
TTITLE12=Dodo
TTITLE13=La glace au citron
TTITLE14=Le courant d'air
TTITLE15=Matin chagrin
TTITLE16=J'ai plus faim
TTITLE17=Le pantalon
TTITLE18=Mi aout
TTITLE19=La fourmi amoureuse
TTITLE20=Le si do des crapaut
TTITLE21=Le voyage
TTITLE22=Joyeux anniversaire
TTITLE23=Grand maman
TTITLE24=Boum badaboum
TTITLE25=Dodo
EXTD=
EXTT0=
EXTT1=
EXTT2=
EXTT3=
EXTT4=
EXTT5=
EXTT6=
EXTT7=
EXTT8=
EXTT9=
EXTT10=
EXTT11=
EXTT12=
EXTT13=
EXTT14=
EXTT15=
EXTT16=
EXTT17=
EXTT18=
EXTT19=
EXTT20=
EXTT21=
EXTT22=
EXTT23=
EXTT24=
EXTT25=
PLAYORDER=
